<?xml version="1.0" standalone="no"?>
<!DOCTYPE svg PUBLIC "-//W3C//DTD SVG 20010904//EN"
 "http://www.w3.org/TR/2001/REC-SVG-20010904/DTD/svg10.dtd">
<svg version="1.0" xmlns="http://www.w3.org/2000/svg"
 width="123.000000pt" height="123.000000pt" viewBox="0 0 123.000000 123.000000"
 preserveAspectRatio="xMidYMid meet">
<metadata>
Created by potrace 1.14, written by Peter Selinger 2001-2017
</metadata>
<g transform="translate(0.000000,123.000000) scale(0.100000,-0.100000)"
fill="#000000" stroke="none">
<path d="M0 615 l0 -615 615 0 615 0 0 615 0 615 -615 0 -615 0 0 -615z m659
454 c35 -12 35 -13 21 -40 -9 -16 -15 -17 -31 -8 -22 11 -49 6 -49 -10 0 -6
18 -20 40 -31 63 -32 75 -66 35 -105 -27 -28 -80 -33 -118 -14 -30 16 -30 15
-18 37 9 18 15 19 39 10 30 -12 62 -6 62 11 0 5 -9 12 -19 16 -82 26 -95 111
-21 138 22 8 24 8 59 -4z m-5 -340 c32 -25 33 -45 4 -76 -16 -17 -19 -26 -10
-35 8 -8 15 -8 27 2 13 11 19 11 32 -3 14 -13 14 -19 3 -32 -11 -13 -9 -19 10
-40 l23 -25 -34 0 c-19 0 -40 5 -47 12 -9 9 -15 9 -24 0 -17 -17 -79 -15 -106
4 -29 20 -28 55 3 84 20 18 22 26 14 42 -15 28 -3 67 24 78 35 14 52 12 81
-11z m10 -335 c26 -26 24 -71 -4 -95 -19 -16 -18 -18 15 -57 19 -22 35 -43 35
-46 0 -3 -13 -6 -29 -6 -21 0 -37 10 -60 38 l-30 37 -1 -37 c0 -35 -2 -38 -30
-38 l-30 0 0 110 0 110 59 0 c41 0 65 -5 75 -16z"/>
</g>
</svg>
